<svg xmlns="http://www.w3.org/2000/svg" viewBox="0 0 800 500" fill="none">
  <rect width="800" height="500" fill="#ffffff" rx="8"/>
  <defs>
    <linearGradient id="analyticsBlue" x1="0" y1="0" x2="0" y2="1">
      <stop offset="0%" stop-color="#2563eb" stop-opacity="0.3"/>
      <stop offset="100%" stop-color="#2563eb" stop-opacity="0.02"/>
    </linearGradient>
  </defs>
  <!-- Header -->
  <rect x="24" y="16" width="752" height="52" fill="#f8fafc" rx="10"/>
  <text x="40" y="48" font-family="system-ui" font-size="16" font-weight="700" fill="#1e293b">Analytics & Reporting</text>
  <rect x="640" y="26" width="120" height="32" fill="#2563eb" rx="8" opacity="0.1"/>
  <text x="660" y="46" font-family="system-ui" font-size="12" font-weight="600" fill="#2563eb">Export Report</text>
  <!-- Date range -->
  <rect x="400" y="26" width="140" height="32" fill="#ffffff" rx="8" stroke="#e2e8f0" stroke-width="1"/>
  <text x="418" y="46" font-family="system-ui" font-size="11" font-weight="400" fill="#64748b">May 1 – May 22, 2026</text>
  <!-- KPI Cards Row -->
  <rect x="24" y="84" width="176" height="88" fill="#f8fafc" rx="10" stroke="#e2e8f0" stroke-width="1"/>
  <text x="40" y="108" font-family="system-ui" font-size="11" font-weight="400" fill="#64748b">Total Encounters</text>
  <text x="40" y="140" font-family="system-ui" font-size="28" font-weight="700" fill="#1e293b">4,832</text>
  <text x="140" y="140" font-family="system-ui" font-size="11" font-weight="500" fill="#22c55e">↑ 12.3%</text>

  <rect x="212" y="84" width="176" height="88" fill="#f8fafc" rx="10" stroke="#e2e8f0" stroke-width="1"/>
  <text x="228" y="108" font-family="system-ui" font-size="11" font-weight="400" fill="#64748b">Active Patients</text>
  <text x="228" y="140" font-family="system-ui" font-size="28" font-weight="700" fill="#1e293b">1,247</text>
  <text x="328" y="140" font-family="system-ui" font-size="11" font-weight="500" fill="#22c55e">↑ 8.1%</text>

  <rect x="400" y="84" width="176" height="88" fill="#f8fafc" rx="10" stroke="#e2e8f0" stroke-width="1"/>
  <text x="416" y="108" font-family="system-ui" font-size="11" font-weight="400" fill="#64748b">Avg. Wait Time</text>
  <text x="416" y="140" font-family="system-ui" font-size="28" font-weight="700" fill="#1e293b">11 min</text>
  <text x="516" y="140" font-family="system-ui" font-size="11" font-weight="500" fill="#22c55e">↓ 4 min</text>

  <rect x="588" y="84" width="188" height="88" fill="#f8fafc" rx="10" stroke="#e2e8f0" stroke-width="1"/>
  <text x="604" y="108" font-family="system-ui" font-size="11" font-weight="400" fill="#64748b">Satisfaction</text>
  <text x="604" y="140" font-family="system-ui" font-size="28" font-weight="700" fill="#1e293b">4.8</text>
  <text x="700" y="140" font-family="system-ui" font-size="11" font-weight="500" fill="#22c55e">↑ 0.3</text>

  <!-- Main chart area -->
  <rect x="24" y="188" width="488" height="280" fill="#f8fafc" rx="10" stroke="#e2e8f0" stroke-width="1"/>
  <text x="40" y="212" font-family="system-ui" font-size="13" font-weight="600" fill="#1e293b">Monthly Encounters</text>
  <text x="340" y="212" font-family="system-ui" font-size="10" font-weight="400" fill="#64748b">2026</text>
  <!-- Area chart -->
  <path d="M40 440 L80 420 L120 380 L160 360 L200 340 L240 350 L280 310 L320 290 L360 270 L400 250 L440 260 L480 230" stroke="#2563eb" stroke-width="2.5" fill="none"/>
  <path d="M40 440 L80 420 L120 380 L160 360 L200 340 L240 350 L280 310 L320 290 L360 270 L400 250 L440 260 L480 230 L480 440 Z" fill="url(#analyticsBlue)"/>
  <circle cx="480" cy="230" r="5" fill="#2563eb"/>
  <circle cx="480" cy="230" r="8" fill="#2563eb" opacity="0.15"/>
  <!-- Y-axis labels -->
  <text x="20" y="424" font-family="system-ui" font-size="9" font-weight="400" fill="#94a3b8">0</text>
  <text x="20" y="380" font-family="system-ui" font-size="9" font-weight="400" fill="#94a3b8">200</text>
  <text x="20" y="336" font-family="system-ui" font-size="9" font-weight="400" fill="#94a3b8">400</text>
  <text x="20" y="292" font-family="system-ui" font-size="9" font-weight="400" fill="#94a3b8">600</text>
  <text x="20" y="248" font-family="system-ui" font-size="9" font-weight="400" fill="#94a3b8">800</text>
  <!-- X-axis labels -->
  <text x="70" y="456" font-family="system-ui" font-size="9" font-weight="400" fill="#94a3b8">Jan</text>
  <text x="150" y="456" font-family="system-ui" font-size="9" font-weight="400" fill="#94a3b8">Mar</text>
  <text x="230" y="456" font-family="system-ui" font-size="9" font-weight="400" fill="#94a3b8">May</text>
  <text x="310" y="456" font-family="system-ui" font-size="9" font-weight="400" fill="#94a3b8">Jul</text>
  <text x="390" y="456" font-family="system-ui" font-size="9" font-weight="400" fill="#94a3b8">Sep</text>
  <text x="460" y="456" font-family="system-ui" font-size="9" font-weight="400" fill="#94a3b8">Nov</text>
  <!-- Grid lines -->
  <line x1="40" y1="380" x2="512" y2="380" stroke="#e2e8f0" stroke-width="0.5"/>
  <line x1="40" y1="336" x2="512" y2="336" stroke="#e2e8f0" stroke-width="0.5"/>
  <line x1="40" y1="292" x2="512" y2="292" stroke="#e2e8f0" stroke-width="0.5"/>
  <line x1="40" y1="248" x2="512" y2="248" stroke="#e2e8f0" stroke-width="0.5"/>

  <!-- Right sidebar analytics -->
  <!-- Top diagnoses -->
  <rect x="528" y="188" width="248" height="136" fill="#f8fafc" rx="10" stroke="#e2e8f0" stroke-width="1"/>
  <text x="544" y="212" font-family="system-ui" font-size="13" font-weight="600" fill="#1e293b">Top Diagnoses</text>
  <rect x="544" y="224" width="216" height="1" fill="#e2e8f0"/>
  <text x="544" y="244" font-family="system-ui" font-size="11" font-weight="500" fill="#1e293b">Hypertension</text>
  <rect x="640" y="236" width="80" height="6" fill="#2563eb" rx="3" opacity="0.3"/>
  <rect x="640" y="236" width="64" height="6" fill="#2563eb" rx="3"/>
  <text x="726" y="244" font-family="system-ui" font-size="10" font-weight="500" fill="#64748b">324</text>
  <text x="544" y="264" font-family="system-ui" font-size="11" font-weight="500" fill="#1e293b">Type 2 Diabetes</text>
  <rect x="640" y="256" width="80" height="6" fill="#2563eb" rx="3" opacity="0.3"/>
  <rect x="640" y="256" width="52" height="6" fill="#2563eb" rx="3"/>
  <text x="726" y="264" font-family="system-ui" font-size="10" font-weight="500" fill="#64748b">267</text>
  <text x="544" y="284" font-family="system-ui" font-size="11" font-weight="500" fill="#1e293b">Upper Respiratory Inf.</text>
  <rect x="640" y="276" width="80" height="6" fill="#2563eb" rx="3" opacity="0.3"/>
  <rect x="640" y="276" width="44" height="6" fill="#2563eb" rx="3"/>
  <text x="726" y="284" font-family="system-ui" font-size="10" font-weight="500" fill="#64748b">198</text>
  <text x="544" y="304" font-family="system-ui" font-size="11" font-weight="500" fill="#1e293b">Hyperlipidemia</text>
  <rect x="640" y="296" width="80" height="6" fill="#2563eb" rx="3" opacity="0.3"/>
  <rect x="640" y="296" width="36" height="6" fill="#2563eb" rx="3"/>
  <text x="726" y="304" font-family="system-ui" font-size="10" font-weight="500" fill="#64748b">145</text>

  <!-- Appointment type breakdown -->
  <rect x="528" y="336" width="248" height="132" fill="#f8fafc" rx="10" stroke="#e2e8f0" stroke-width="1"/>
  <text x="544" y="360" font-family="system-ui" font-size="13" font-weight="600" fill="#1e293b">Appointment Types</text>
  <rect x="544" y="372" width="216" height="1" fill="#e2e8f0"/>
  <!-- Donut chart -->
  <circle cx="600" cy="420" r="40" fill="none" stroke="#e2e8f0" stroke-width="16"/>
  <circle cx="600" cy="420" r="40" fill="none" stroke="#2563eb" stroke-width="16" stroke-dasharray="126 126" stroke-dashoffset="0" transform="rotate(-90 600 420)"/>
  <circle cx="600" cy="420" r="40" fill="none" stroke="#22c55e" stroke-width="16" stroke-dasharray="50 202" stroke-dashoffset="-126" transform="rotate(-90 600 420)"/>
  <circle cx="600" cy="420" r="40" fill="none" stroke="#f59e0b" stroke-width="16" stroke-dasharray="30 222" stroke-dashoffset="-176" transform="rotate(-90 600 420)"/>
  <text x="600" y="424" font-family="system-ui" font-size="16" font-weight="700" fill="#1e293b" text-anchor="middle">60%</text>
  <!-- Legend -->
  <rect x="660" y="380" width="8" height="8" fill="#2563eb" rx="2"/>
  <text x="674" y="388" font-family="system-ui" font-size="10" font-weight="400" fill="#64748b">In-Person</text>
  <rect x="660" y="398" width="8" height="8" fill="#22c55e" rx="2"/>
  <text x="674" y="406" font-family="system-ui" font-size="10" font-weight="400" fill="#64748b">Telemedicine</text>
  <rect x="660" y="416" width="8" height="8" fill="#f59e0b" rx="2"/>
  <text x="674" y="424" font-family="system-ui" font-size="10" font-weight="400" fill="#64748b">Phone</text>
</svg>
